[img]http://img706.imageshack.us/img706/2567/changeup.jpg[/img]
[code]
The Change Up 2011 TS XViD - IMAGiNE                              

Ripper ...........: IMAGiNE              IMDB Rating.......: 6.1/10                        
Video Codec.......: XViD                 Release Date......: 14/08/11
Audio Codec.......: MP3                  Theatre Date......: 05/08/11
Audio Bitrate.....: 128                  Runtime...........: 1h 46mn
Subtitles.........: NIL                  Language..........: ENGLISH

Resolution........: 640 x 288            IMDb URL..........: 
 
http://www.imdb.com/title/tt1488555/

DETAILS:

Video
ID                               : 0
Format                           : MPEG-4 Visual
Format profile                   : Advanced Simple@L5
Format settings, BVOP            : 2
Format settings, QPel            : No
Format settings, GMC             : No warppoints
Format settings, Matrix          : Default (MPEG)
Muxing mode                      : Packed bitstream
Codec ID                         : XVID
Codec ID/Hint                    : XviD
Duration                         : 1h 46mn
Bit rate                         : 1 697 Kbps
Width                            : 640 pixels
Height                           : 288 pixels
Display aspect ratio             : 2.222
Frame rate                       : 29.000 fps
Color space                      : YUV
Chroma subsampling               : 4:2:0
Bit depth                        : 8 bits
Scan type                        : Progressive
Compression mode                 : Lossy
Bits/(Pixel*Frame)               : 0.318
Stream size                      : 1.27 GiB (92%)
Writing library                  : XviD 64

Audio
ID                               : 1
Format                           : MPEG Audio
Format version                   : Version 1
Format profile                   : Layer 3
Mode                             : Joint stereo
Mode extension                   : MS Stereo
Codec ID                         : 55
Codec ID/Hint                    : MP3
Duration                         : 1h 46mn
Bit rate mode                    : Constant
Bit rate                         : 128 Kbps
Channel(s)                       : 2 channels
Sampling rate                    : 44.1 KHz
Compression mode                 : Lossy
Stream size                      : 97.9 MiB (7%)
Alignment                        : Split accross interleaves
Interleave, duration             : 34 ms (1.00 video frame)

plot:
A comedy in which a married father accidentally switches bodies with his best friend, 

leading to a series of wildly complex difficulties.

SOURCES:
VIDEO: ............... The Change Up 2011 CAM XviD ERDNA Thanks 
AUDIO: ............... Thanks Matey 

NOTES:
Ok heres another one........
First we made a script to crop resize and sharpen Then we made some adjustments to the 

colors as they were off.......
Audio is nice LiNE we filtered synced and muxed to our encode 

Enjoy!
[/code]
Screens:
[img]http://img600.imageshack.us/img600/9952/78078152.png[/img]
[img]http://img163.imageshack.us/img163/3989/28042739.png[/img]
[img]http://img30.imageshack.us/img30/244/51213600.png[/img]
[img]http://img62.imageshack.us/img62/7692/83170237.png[/img]
[img]http://img684.imageshack.us/img684/5790/31259249.png[/img]